<svg width="1548" height="1582" viewBox="0 0 1548 1582" fill="none" xmlns="http://www.w3.org/2000/svg">
<g clip-path="url(#clip0_63_27)">
<rect width="1548" height="1582" fill="#B9FFDD"/>
<path d="M515.816 221.097L553.528 176.633L401.765 48.0335L364.053 92.4972L515.816 221.097Z" fill="#93D4CF"/>
<path d="M1176.83 1581.94L1232.97 1566.17L1179.13 1374.72L1122.99 1390.49L1176.83 1581.94Z" fill="#93D4CF"/>
<path d="M296.248 418.134L266.506 368.003L95.4006 469.426L125.143 519.557L296.248 418.134Z" fill="#F8A37C"/>
<path d="M744.262 1169.67L799 1149.56L730.365 962.904L675.627 983.013L744.262 1169.67Z" fill="#B0D7EB"/>
<path d="M28.5872 1419.86L44.3682 1475.97L235.905 1422.16L220.124 1366.04L28.5872 1419.86Z" fill="#FFE07D"/>
<path d="M157.201 237.821L214.704 247.532L247.85 51.4424L190.347 41.7312L157.201 237.821Z" fill="#DCA0C8"/>
<path d="M1061.31 491.946L1099.02 447.482L947.255 318.882L909.543 363.346L1061.31 491.946Z" fill="#F8A37C"/>
<path d="M1115.86 768.395L1171.79 784.912L1228.16 594.193L1172.23 577.677L1115.86 768.395Z" fill="#93D4CF"/>
<path d="M1512.01 363.747L1482.44 313.506L1310.96 414.35L1340.53 464.591L1512.01 363.747Z" fill="#FBD1CC"/>
<path d="M884.647 570.541L863.491 516.22L678.085 588.362L699.24 642.683L884.647 570.541Z" fill="#F9CDE0"/>
<path d="M1095.43 222.184L1092.51 280.402L1291.22 290.36L1294.14 232.141L1095.43 222.184Z" fill="#F27B9B"/>
<path d="M787.204 105.951L730.401 119.153L775.462 312.854L832.265 299.652L787.204 105.951Z" fill="#FFE07D"/>
<path d="M861.66 -0.00488692L834.354 51.5017L1010.15 144.62L1037.46 93.1129L861.66 -0.00488692Z" fill="#F9CDE0"/>
<path d="M614.031 309.253L560.456 286.224L481.854 468.915L535.429 491.944L614.031 309.253Z" fill="#DCA0C8"/>
<path d="M832.002 733.554L802.843 784.036L975.147 883.47L1004.31 832.988L832.002 733.554Z" fill="#B5B8DD"/>
<path d="M409.07 858.29L367.832 899.509L508.518 1040.13L549.755 998.912L409.07 858.29Z" fill="#93D4CF"/>
<path d="M420.532 1110.74L365.689 1090.92L298.032 1277.93L352.875 1297.76L420.532 1110.74Z" fill="#F9CDE0"/>
<path d="M1528.23 195.806L1548.06 140.989L1360.96 73.3632L1341.13 128.181L1528.23 195.806Z" fill="#B0D7EB"/>
<path d="M1304.68 831.387L1281.7 884.96L1464.55 963.335L1487.54 909.761L1304.68 831.387Z" fill="#F9CDE0"/>
<path d="M1438.84 580.615L1388.33 609.761L1487.81 781.986L1538.32 752.84L1438.84 580.615Z" fill="#B5B8DD"/>
<path d="M151.053 1000.83L207.856 987.624L162.795 793.923L105.992 807.125L151.053 1000.83Z" fill="#F27B9B"/>
<path d="M458.846 1414.98L511.462 1440.13L597.273 1260.7L544.657 1235.56L458.846 1414.98Z" fill="#F7A9AF"/>
<path d="M634.727 1377.28L658.938 1430.31L839.941 1347.75L815.729 1294.72L634.727 1377.28Z" fill="#DCA0C8"/>
<path d="M16.5335 1112.5L0.00927734 1168.41L190.815 1224.76L207.339 1168.85L16.5335 1112.5Z" fill="#F8A37C"/>
<path d="M640.15 784.446L651.128 727.196L455.725 689.761L444.747 747.011L640.15 784.446Z" fill="#F8A37C"/>
<path d="M279.643 730.82L337.621 737.105L359.074 539.396L301.096 533.111L279.643 730.82Z" fill="#FBD1CC"/>
<path d="M983.804 1263.25L997.012 1320.03L1190.8 1274.99L1177.59 1218.21L983.804 1263.25Z" fill="#FFE07D"/>
<path d="M1148.2 932.058L1101.32 897.385L982.97 1057.25L1029.85 1091.92L1148.2 932.058Z" fill="#F7A9AF"/>
<path d="M1320.71 1109.03L1272.7 1142.13L1385.65 1305.84L1433.66 1272.75L1320.71 1109.03Z" fill="#F27B9B"/>
<path d="M1479 1499.42L1531.62 1524.56L1617.43 1345.14L1564.81 1320L1479 1499.42Z" fill="#F7A9AF"/>
<path d="M867.774 1720.17L923.702 1736.69L980.076 1545.97L924.148 1529.46L867.774 1720.17Z" fill="#FFE07D"/>
<path d="M385.562 1573.32L364.407 1519L179 1591.14L200.156 1645.46L385.562 1573.32Z" fill="#F9CDE0"/>
</g>
<defs>
<clipPath id="clip0_63_27">
<rect width="1548" height="1582" fill="white"/>
</clipPath>
</defs>
</svg>
