<svg width="213" height="32" viewBox="0 0 213 32" fill="none" xmlns="http://www.w3.org/2000/svg">
<path fill-rule="evenodd" clip-rule="evenodd" d="M11.0097 17.0014C10.8271 16.9487 10.6488 16.8823 10.4761 16.8029C9.82766 16.4988 9.2766 16.0211 8.88431 15.423C7.85517 15.2866 6.80895 15.3603 5.80922 15.6395C5.56503 15.7297 5.2756 15.8559 4.95905 16.0002C3.71093 16.5504 2.01963 17.299 1.39557 16.6857C0.617757 15.9101 2.82459 13.6824 2.82459 13.6824C2.76673 12.4427 3.0022 11.2069 3.51195 10.0747C4.02631 8.91758 4.80349 7.89556 5.78209 7.08945C9.21895 3.9869 17.7297 2.67012 20.027 4.00494C20.027 4.00494 23.2468 0.812204 26.1772 1.21806C26.6673 1.28812 27.1364 1.46352 27.5519 1.73215C27.173 1.9511 26.8286 2.22462 26.5299 2.54386C26.1113 2.9985 25.7993 3.54018 25.6163 4.12976C25.4332 4.71935 25.3839 5.34211 25.4717 5.95305C28.3087 7.35244 30.7031 9.50598 32.3906 12.1762C35.3481 16.7488 35.1039 22.5571 35.1039 22.5571C35.1039 22.5571 39.2191 22.8818 40.8019 26.1106C40.9981 26.5161 41.1468 26.9428 41.2451 27.3823C40.7738 27.3448 40.3106 27.2385 39.8703 27.0666L39.5447 26.9313C38.2944 27.2339 36.977 27.0837 35.8275 26.5074C35.4209 26.2686 35.0572 25.9637 34.7512 25.6055C34.7231 26.0509 34.5446 26.4737 34.2447 26.805C33.9851 27.081 33.6732 27.3028 33.327 27.4576C32.9807 27.6124 32.6072 27.6972 32.2278 27.7069C32.0922 27.7069 31.9565 27.7069 31.8208 27.7069L31.1335 28.8704C31.0123 28.3413 30.9636 27.7982 30.9888 27.256C30.9888 27.0486 30.9888 26.8231 31.043 26.5976C31.1452 25.8587 31.4109 25.1518 31.8207 24.5279C32.2305 23.9039 32.7743 23.3786 33.4127 22.99C33.4127 22.99 30.9797 17.5786 21.8268 15.1705C21.4198 15.0623 20.9947 14.9631 20.5606 14.8638C20.5681 15.2999 20.6444 15.7321 20.7867 16.1446C20.8367 16.3059 20.9002 16.4628 20.9766 16.6135C21.0309 16.7398 21.0942 16.8571 21.1575 16.9743C21.4005 17.3826 21.7056 17.7508 22.062 18.0656C21.5349 18.1685 20.9954 18.1928 20.4611 18.1378C18.1203 17.8732 15.9755 16.7083 14.4828 14.8909L11.8418 15.1976C11.8792 15.4646 11.9305 15.7295 11.9956 15.9912C12.0221 16.1141 12.0584 16.2348 12.1041 16.352C12.1788 16.6707 12.3568 16.956 12.6106 17.1637C12.0715 17.2223 11.526 17.167 11.0097 17.0014ZM13.3794 16.1987L15.3601 17.308C14.8825 16.9443 14.4321 16.5464 14.0125 16.1175L13.3794 16.1896V16.1987ZM16.2917 17.9393C17.2566 18.5305 18.3193 18.9458 19.43 19.1659C20.1052 19.3027 20.7954 19.3512 21.4831 19.3102C21.6893 19.3034 21.8948 19.2823 22.0981 19.2471H22.279H22.3695C22.2897 18.8575 22.1901 18.4722 22.071 18.0927H23.3101V17.5605L22.9031 17.2088C22.6958 17.0232 22.5106 16.8144 22.3514 16.5865C25.1628 17.3624 27.7647 18.7553 29.9667 20.6631C30.6421 21.2784 31.2486 21.9648 31.7756 22.7104C30.6567 23.7137 29.9429 25.0893 29.7678 26.5796C29.696 27.1787 29.696 27.7842 29.7678 28.3834C29.7678 28.6179 29.8311 28.7982 29.8582 28.9426C29.8853 29.0869 29.8582 29.0598 29.8582 29.1049C29.8573 29.1199 29.8573 29.135 29.8582 29.15L31.0521 28.8524L29.8582 29.15L30.636 32L32.4901 28.8253C33.5339 28.7553 34.5084 28.2792 35.2034 27.4995C35.9819 27.9175 36.8438 28.1577 37.7268 28.203C38.2161 28.2325 38.7071 28.2113 39.192 28.1399H39.3548C39.9134 28.3483 40.4974 28.4817 41.0913 28.5367L42.7645 28.672L42.4118 27.0936C42.1589 26.0139 41.6545 25.0087 40.9396 24.1594C40.2247 23.3102 39.3192 22.6408 38.2966 22.2053C37.655 21.913 36.9853 21.6864 36.2978 21.5289C36.2703 20.6469 36.1888 19.7674 36.0536 18.8954C35.7123 16.2887 34.8215 13.7836 33.4398 11.5448C31.7641 8.891 29.4269 6.71577 26.6565 5.23153C26.674 4.8215 26.7756 4.41939 26.955 4.05004C27.2279 3.51111 27.6521 3.06299 28.176 2.76031L29.8763 1.79528L28.2302 0.749072C26.0053 -0.675935 23.5272 0.216948 21.9625 1.08277C21.2523 1.48516 20.5776 1.94678 19.9456 2.46269L19.7556 2.61601C18.9622 2.40532 18.1438 2.30218 17.3227 2.30936C15.8984 2.30527 14.4773 2.44426 13.0809 2.72424C10.1596 3.29244 6.91264 4.44687 4.94097 6.2146C3.84729 7.12623 2.97524 8.27337 2.39045 9.56968C1.87584 10.726 1.60494 11.9754 1.59455 13.2404C1.32245 13.5469 1.06876 13.8691 0.83482 14.2055C0.541794 14.6082 0.310157 15.0519 0.147445 15.5222C0.00630617 15.861 -0.0346245 16.2329 0.0294847 16.5941C0.0935938 16.9553 0.260064 17.2907 0.509222 17.5605C0.752672 17.7788 1.03977 17.9431 1.35158 18.0426C1.66338 18.1421 1.9928 18.1745 2.3181 18.1378C2.84437 18.0859 3.36142 17.9646 3.85564 17.777C4.335 17.6056 4.81434 17.3982 5.22134 17.2178L5.46554 17.1186C5.75496 16.9833 5.99012 16.8841 6.18005 16.812C6.83101 16.6368 7.50536 16.5637 8.17885 16.5955C8.65195 17.1566 9.24128 17.6089 9.90632 17.9213C10.7782 18.3264 11.7456 18.4825 12.701 18.3723L16.2917 17.9393Z" fill="white"/>
<path d="M68.8842 23.6504C68.811 23.6619 68.736 23.6559 68.6655 23.633C68.595 23.6101 68.531 23.5709 68.4785 23.5187C68.4261 23.4664 68.3868 23.4025 68.3638 23.3322C68.3409 23.2619 68.3349 23.1872 68.3464 23.1141V21.6169C67.6429 22.337 66.8056 22.9138 65.8813 23.3152C64.2426 24.0055 62.4172 24.1198 60.7047 23.6393C60.0289 23.4536 59.3809 23.1793 58.7775 22.8236C58.1803 22.4742 57.6305 22.0499 57.1416 21.561C56.6511 21.0708 56.2222 20.5231 55.8642 19.9297C55.5085 19.3261 55.23 18.6805 55.0351 18.0079C54.6615 16.6095 54.6615 15.138 55.0351 13.7396C55.2299 13.0634 55.5084 12.4141 55.8642 11.8066C56.222 11.2098 56.6509 10.6583 57.1416 10.1641C57.6362 9.68171 58.1851 9.25802 58.7775 8.90152C60.0022 8.16759 61.4047 7.78124 62.8336 7.78418C63.8822 7.77787 64.9205 7.99104 65.8813 8.40989C66.8011 8.81938 67.6369 9.39521 68.3464 10.1083V3.95169C68.343 3.8109 68.3954 3.67445 68.492 3.5718C68.546 3.51785 68.6109 3.47598 68.6824 3.44901C68.7539 3.42204 68.8303 3.41057 68.9066 3.41537H70.1952C70.3364 3.41203 70.4732 3.4642 70.5761 3.56062C70.6279 3.61148 70.6686 3.67249 70.6956 3.73979C70.7226 3.8071 70.7353 3.87924 70.733 3.95169V23.1141C70.733 23.4717 70.5425 23.6504 70.1504 23.6504H68.8842ZM68.4696 15.829C68.4714 15.0618 68.319 14.3019 68.0214 13.5944C67.739 12.9022 67.3285 12.2692 66.8113 11.7284C66.3041 11.1918 65.6996 10.7558 65.0298 10.4435C64.3436 10.1326 63.5984 9.97256 62.8448 9.97417C62.0944 9.9688 61.3521 10.1291 60.6711 10.4435C60.0029 10.7586 59.3988 11.1942 58.8895 11.7284C58.383 12.2731 57.9805 12.9055 57.7018 13.5944C57.4059 14.3024 57.2536 15.062 57.2536 15.829C57.2536 16.5961 57.4059 17.3556 57.7018 18.0637C57.9809 18.7424 58.3836 19.3637 58.8895 19.8962C59.4032 20.4166 60.0067 20.8406 60.6711 21.1476C61.3528 21.4585 62.0952 21.615 62.8448 21.6057C63.5977 21.6112 64.3429 21.4549 65.0298 21.1476C65.6958 20.8434 66.2998 20.4191 66.8113 19.8962C67.8678 18.8125 68.4622 17.3628 68.4696 15.8514V15.829Z" fill="white"/>
<path d="M74.8107 15.8736C74.8032 14.7967 75.0247 13.7304 75.4606 12.7451C75.8757 11.783 76.4687 10.9074 77.2086 10.164C77.9518 9.43379 78.821 8.84331 79.7745 8.42093C80.7611 7.99513 81.8256 7.77826 82.9006 7.78405C84.3295 7.78111 85.732 8.16747 86.9568 8.90139C87.5491 9.25789 88.0981 9.68158 88.5927 10.164C89.0833 10.6581 89.5122 11.2096 89.87 11.8065C90.6065 13.034 90.9954 14.4376 90.9954 15.868C90.9954 17.2984 90.6065 18.7021 89.87 19.9296C89.5121 20.5229 89.0831 21.0707 88.5927 21.5609C88.1037 22.0497 87.5539 22.4741 86.9568 22.8235C86.3534 23.1792 85.7053 23.4535 85.0295 23.6391C84.3374 23.8365 83.6205 23.9343 82.9006 23.9296C82.1806 23.9357 81.4636 23.8379 80.7717 23.6391C80.0952 23.4556 79.4468 23.1812 78.8445 22.8235C78.2417 22.4773 77.6878 22.0527 77.1974 21.5609C76.7104 21.0704 76.2852 20.5226 75.9312 19.9296C75.5755 19.326 75.297 18.6803 75.1021 18.0077C74.9089 17.3127 74.8109 16.5948 74.8107 15.8736ZM77.2646 15.8736C77.2592 16.6401 77.4078 17.3999 77.7016 18.1083C77.9927 18.7859 78.4025 19.4064 78.9117 19.9407C79.4254 20.4612 80.0288 20.8851 80.6933 21.1922C81.3971 21.5082 82.1625 21.6646 82.9342 21.6503C83.6838 21.6595 84.4262 21.5031 85.108 21.1922C86.4602 20.5855 87.5243 19.4803 88.0772 18.1083C88.3731 17.4002 88.5254 16.6407 88.5254 15.8736C88.5254 15.1065 88.3731 14.347 88.0772 13.6389C87.7986 12.95 87.3961 12.3177 86.8895 11.773C86.3823 11.2364 85.7778 10.8004 85.108 10.488C84.427 10.1736 83.6847 10.0134 82.9342 10.0187C82.1616 10.0079 81.3962 10.1682 80.6933 10.488C80.025 10.8031 79.421 11.2388 78.9117 11.773C78.402 12.3196 77.9924 12.9511 77.7016 13.6389C77.4075 14.3472 77.2589 15.1071 77.2646 15.8736Z" fill="white"/>
<path d="M97.7923 23.1141C97.8018 23.1877 97.794 23.2626 97.7696 23.3327C97.7452 23.4029 97.7048 23.4665 97.6516 23.5184C97.5984 23.5704 97.5339 23.6094 97.463 23.6323C97.3922 23.6552 97.317 23.6614 97.2433 23.6504H95.9884C95.6074 23.6504 95.4057 23.4716 95.4057 23.1141V3.95165C95.4026 3.87808 95.416 3.80474 95.4451 3.73705C95.4742 3.66937 95.5182 3.60906 95.5738 3.56059C95.6244 3.51233 95.6842 3.47463 95.7496 3.44969C95.815 3.42475 95.8848 3.41307 95.9548 3.41533H97.2321C97.3085 3.40901 97.3854 3.41977 97.4571 3.44683C97.5288 3.47389 97.5936 3.51658 97.6467 3.57176C97.7464 3.67329 97.8027 3.80952 97.8036 3.95165L97.7923 23.1141Z" fill="white"/>
<path d="M105.422 10.0745C106.123 9.35286 106.956 8.77245 107.876 8.36498C109.519 7.67733 111.347 7.56315 113.064 8.04095C113.737 8.22461 114.382 8.49903 114.98 8.85662C115.583 9.20279 116.137 9.62738 116.627 10.1192C117.137 10.6061 117.585 11.1541 117.96 11.7505C118.316 12.3541 118.595 12.9998 118.79 13.6724C119.163 15.0707 119.163 16.5422 118.79 17.9406C118.593 18.6091 118.315 19.2508 117.96 19.8513C117.252 21.0536 116.244 22.054 115.036 22.7564C114.434 23.1176 113.786 23.3958 113.109 23.5832C112.416 23.777 111.7 23.8747 110.98 23.8737C109.914 23.8949 108.856 23.6892 107.876 23.2703C106.953 22.8674 106.116 22.2908 105.411 21.572V27.8403C105.414 27.9811 105.362 28.1175 105.265 28.2202C105.153 28.3237 105.004 28.3798 104.851 28.3766H103.574C103.502 28.3798 103.431 28.3681 103.364 28.3422C103.297 28.3164 103.237 28.277 103.186 28.2266C103.136 28.1761 103.096 28.1157 103.07 28.0492C103.044 27.9827 103.032 27.9115 103.036 27.8403V8.57728C103.036 8.20856 103.226 8.02978 103.618 8.02978H104.884C104.958 8.02033 105.033 8.02808 105.104 8.05243C105.174 8.07678 105.238 8.11707 105.29 8.17012C105.342 8.22317 105.381 8.28754 105.404 8.35819C105.427 8.42883 105.433 8.50383 105.422 8.57728V10.0745ZM105.299 15.8065C105.297 16.5738 105.45 17.3336 105.747 18.0412C106.036 18.7135 106.446 19.3271 106.957 19.8513C107.465 20.3878 108.069 20.8238 108.739 21.1362C109.442 21.4571 110.207 21.6175 110.98 21.6055C111.73 21.6109 112.473 21.4506 113.154 21.1362C113.804 20.819 114.389 20.3832 114.879 19.8513C115.389 19.307 115.795 18.6747 116.078 17.9853C116.661 16.5754 116.661 14.9929 116.078 13.583C115.522 12.2106 114.459 11.103 113.109 10.4879C112.427 10.177 111.685 10.0206 110.935 10.0298C110.163 10.014 109.397 10.1705 108.694 10.4879C108.028 10.7921 107.424 11.2164 106.913 11.7394C105.861 12.8262 105.267 14.2739 105.254 15.7841L105.299 15.8065Z" fill="white"/>
<path d="M125.861 9.61654C126.078 9.33315 126.326 9.0746 126.6 8.84558C126.865 8.61764 127.159 8.42599 127.474 8.27574C127.832 8.11258 128.208 7.99255 128.595 7.91819C129.064 7.83255 129.541 7.79139 130.018 7.79528C130.861 7.78436 131.697 7.95315 132.47 8.29036C133.243 8.62756 133.935 9.12541 134.5 9.75063C135.053 10.3675 135.483 11.0843 135.766 11.8624C136.069 12.6967 136.221 13.5783 136.214 14.4658V22.8124C136.224 22.9257 136.211 23.0399 136.174 23.1477C136.137 23.2554 136.078 23.3543 136.001 23.4381C135.929 23.5091 135.843 23.5645 135.749 23.6011C135.654 23.6376 135.553 23.6544 135.452 23.6504H134.544C134.242 23.6504 134.04 23.5833 133.962 23.4604C133.859 23.2726 133.812 23.0593 133.827 22.8459V14.4658C133.823 13.9562 133.736 13.4506 133.57 12.9686C133.408 12.4609 133.153 11.9874 132.819 11.5719C132.487 11.1434 132.062 10.7958 131.575 10.5551C131.047 10.2783 130.457 10.1399 129.861 10.1529C129.375 10.1576 128.894 10.2445 128.438 10.4099C127.97 10.5757 127.537 10.8257 127.16 11.1473C126.769 11.4846 126.452 11.8994 126.23 12.3652C125.981 12.8841 125.858 13.4546 125.872 14.03V23.114C125.881 23.1877 125.874 23.2625 125.849 23.3327C125.825 23.4029 125.784 23.4664 125.731 23.5184C125.678 23.5704 125.613 23.6093 125.543 23.6322C125.472 23.6551 125.397 23.6613 125.323 23.6504H124.057C123.665 23.6504 123.474 23.4716 123.474 23.114V3.94045C123.471 3.86688 123.484 3.79353 123.513 3.72584C123.543 3.65816 123.587 3.59785 123.642 3.54938C123.692 3.50005 123.752 3.46164 123.817 3.43663C123.883 3.41162 123.953 3.40054 124.023 3.40412H125.3C125.374 3.39954 125.447 3.41002 125.517 3.43492C125.586 3.45981 125.649 3.49858 125.703 3.54885C125.756 3.59911 125.799 3.6598 125.828 3.72716C125.857 3.79451 125.872 3.86711 125.872 3.94045L125.861 9.61654Z" fill="white"/>
<path d="M143.295 5.20316C143.307 5.27767 143.3 5.35381 143.277 5.42543C143.253 5.49705 143.213 5.56215 143.16 5.61545C143.106 5.66874 143.041 5.70875 142.969 5.73224C142.897 5.75573 142.821 5.76204 142.746 5.75066H141.491C141.099 5.75066 140.909 5.57188 140.909 5.20316V3.94057C140.906 3.86699 140.919 3.79365 140.948 3.72596C140.977 3.65827 141.021 3.59797 141.077 3.5495C141.127 3.50016 141.186 3.46176 141.252 3.43674C141.317 3.41173 141.388 3.40066 141.458 3.40424H142.735C142.81 3.39997 142.886 3.41061 142.957 3.43554C143.028 3.46047 143.094 3.4992 143.15 3.5495C143.251 3.65445 143.307 3.79479 143.307 3.94057L143.295 5.20316ZM143.295 23.0806C143.305 23.1543 143.297 23.2291 143.273 23.2993C143.248 23.3695 143.208 23.433 143.155 23.485C143.101 23.537 143.037 23.5759 142.966 23.5988C142.895 23.6217 142.82 23.6279 142.746 23.617H141.491C141.099 23.617 140.909 23.4382 140.909 23.0806V8.55519C140.905 8.47996 140.919 8.40493 140.948 8.33542C140.977 8.26591 141.021 8.20362 141.077 8.15294C141.18 8.05754 141.317 8.00553 141.458 8.00769H142.735C142.812 8.00433 142.889 8.01755 142.961 8.04647C143.032 8.07539 143.097 8.11933 143.15 8.1753C143.2 8.22523 143.239 8.28448 143.266 8.34967C143.293 8.41485 143.307 8.48469 143.307 8.55519L143.295 23.0806Z" fill="white"/>
<path d="M150.892 10.1081C151.132 9.8128 151.39 9.53291 151.665 9.27012C151.96 8.98767 152.287 8.74022 152.64 8.53267C153.013 8.3074 153.412 8.12734 153.827 7.99635C154.304 7.85612 154.799 7.78832 155.295 7.79522C156.212 7.77882 157.121 7.95787 157.962 8.32038C158.712 8.65958 159.374 9.16385 159.901 9.79527C160.433 10.4133 160.837 11.1313 161.088 11.907C161.361 12.7479 161.497 13.6268 161.492 14.5105V22.857C161.5 22.9711 161.485 23.0858 161.446 23.1936C161.408 23.3014 161.347 23.3999 161.268 23.4827C161.198 23.554 161.114 23.6097 161.021 23.6463C160.929 23.6829 160.829 23.6995 160.73 23.695H159.811C159.706 23.7099 159.598 23.7005 159.497 23.6676C159.396 23.6347 159.304 23.5791 159.228 23.5051C159.129 23.3161 159.086 23.1029 159.105 22.8905V14.5105C159.099 14.0043 159.028 13.501 158.892 13.0132C158.762 12.5103 158.538 12.0364 158.231 11.6165C157.911 11.185 157.493 10.8363 157.01 10.5998C156.424 10.3161 155.778 10.1781 155.127 10.1975C154.104 10.2215 153.115 10.5698 152.304 11.1919C151.895 11.532 151.553 11.945 151.295 12.4098C151.018 12.9206 150.879 13.4943 150.892 14.0747V23.1587C150.903 23.2317 150.897 23.3064 150.874 23.3767C150.851 23.447 150.812 23.5109 150.76 23.5632C150.707 23.6155 150.643 23.6547 150.573 23.6776C150.502 23.7005 150.427 23.7065 150.354 23.695H149.077C148.696 23.695 148.505 23.5162 148.505 23.1587V8.63323C148.503 8.55908 148.515 8.48519 148.542 8.41605C148.569 8.3469 148.61 8.28394 148.662 8.23099C148.768 8.13924 148.903 8.08779 149.043 8.08573H150.332C150.407 8.0825 150.482 8.09583 150.552 8.12479C150.622 8.15376 150.684 8.19764 150.735 8.25334C150.785 8.30327 150.824 8.36252 150.851 8.42771C150.878 8.4929 150.892 8.56273 150.892 8.63323V10.1081Z" fill="white"/>
<path d="M178.803 21.5721C178.099 22.2909 177.262 22.8675 176.338 23.2704C175.378 23.6906 174.339 23.9038 173.29 23.8962C171.862 23.8991 170.459 23.5127 169.234 22.7788C168.642 22.4223 168.093 21.9986 167.598 21.5162C167.106 21.0151 166.677 20.456 166.321 19.8514C165.964 19.2458 165.689 18.5958 165.503 17.9184C165.115 16.522 165.115 15.0465 165.503 13.6501C165.689 12.9763 165.964 12.33 166.321 11.7283C166.679 11.1349 167.108 10.5872 167.598 10.097C168.087 9.60813 168.637 9.18381 169.234 8.83439C169.838 8.47867 170.486 8.2044 171.161 8.01873C172.874 7.5382 174.699 7.65246 176.338 8.34276C177.263 8.74898 178.1 9.32947 178.803 10.0523V8.5774C178.792 8.50395 178.798 8.42896 178.821 8.35831C178.844 8.28767 178.883 8.22329 178.936 8.17024C178.988 8.11719 179.051 8.07691 179.122 8.05256C179.192 8.02821 179.267 8.02045 179.341 8.0299H180.607C180.999 8.0299 181.19 8.20868 181.19 8.5774V23.1029C181.191 23.1752 181.178 23.2472 181.152 23.3144C181.125 23.3816 181.084 23.4427 181.033 23.4939C180.927 23.5857 180.792 23.6371 180.652 23.6392H179.363C179.21 23.6423 179.062 23.5863 178.949 23.4827C178.852 23.3801 178.8 23.2436 178.803 23.1029V21.5721ZM178.926 15.8066C178.935 15.0387 178.783 14.2774 178.478 13.5719C178.198 12.8879 177.791 12.2626 177.279 11.7283C176.762 11.2077 176.154 10.7838 175.487 10.4769C174.783 10.1602 174.017 10.0037 173.246 10.0188C172.496 10.0095 171.754 10.166 171.072 10.4769C169.722 11.092 168.659 12.1996 168.103 13.5719C167.52 14.9818 167.52 16.5643 168.103 17.9742C168.401 18.6719 168.826 19.3084 169.358 19.8514C169.861 20.3878 170.461 20.8239 171.128 21.1363C171.809 21.4507 172.551 21.611 173.302 21.6056C174.074 21.6168 174.84 21.4565 175.543 21.1363C176.214 20.8213 176.822 20.3857 177.335 19.8514C177.819 19.3085 178.202 18.6843 178.467 18.0078C178.768 17.3127 178.924 16.5638 178.926 15.8066Z" fill="white"/>
<path d="M188.271 9.69481C188.391 9.47579 188.534 9.26983 188.697 9.08027C188.897 8.85026 189.122 8.64404 189.369 8.46573C189.648 8.27051 189.949 8.10921 190.266 7.98527C190.625 7.85588 191.004 7.79156 191.386 7.79532C191.834 7.79532 192.238 7.79533 192.596 7.85119C192.938 7.88799 193.275 7.9553 193.605 8.05231C193.928 8.14378 194.24 8.27121 194.535 8.43221C194.865 8.60635 195.18 8.8082 195.476 9.03557C195.594 9.12503 195.706 9.22207 195.812 9.32608C195.868 9.37753 195.912 9.43971 195.943 9.50885C195.974 9.578 195.99 9.65267 195.991 9.72833C195.992 9.81481 195.968 9.89973 195.924 9.97414L195.196 11.0915C195.159 11.1517 195.108 11.2024 195.048 11.2393C194.987 11.2762 194.919 11.2983 194.848 11.3038C194.783 11.3014 194.72 11.2778 194.669 11.2367L194.456 11.0803C194 10.762 193.502 10.5065 192.977 10.3205C192.481 10.1621 191.963 10.0829 191.442 10.0859C191.035 10.085 190.631 10.1647 190.255 10.3205C189.88 10.4749 189.541 10.7029 189.257 10.9909C188.95 11.313 188.71 11.6928 188.551 12.1083C188.367 12.5623 188.275 13.0486 188.282 13.5385V23.1699C188.294 23.243 188.288 23.3177 188.265 23.388C188.242 23.4583 188.203 23.5222 188.15 23.5745C188.098 23.6268 188.034 23.666 187.963 23.6889C187.893 23.7118 187.818 23.7177 187.745 23.7063H186.467C186.086 23.7063 185.896 23.5275 185.896 23.1699V8.6445C185.893 8.57036 185.906 8.49646 185.933 8.42731C185.96 8.35817 186.001 8.29521 186.053 8.24226C186.159 8.15051 186.293 8.09906 186.434 8.09701H187.722C187.799 8.09505 187.876 8.10891 187.947 8.13775C188.018 8.16658 188.083 8.20977 188.137 8.2646C188.185 8.31509 188.223 8.37469 188.248 8.43992C188.273 8.50515 188.285 8.5747 188.282 8.6445L188.271 9.69481Z" fill="white"/>
<path d="M210.726 20.0971L210.916 19.9407C210.985 19.8925 211.06 19.8548 211.14 19.829C211.217 19.8069 211.299 19.8069 211.376 19.829C211.472 19.8668 211.554 19.9331 211.611 20.0189L212.014 20.5664C212.115 20.7005 212.205 20.8122 212.261 20.9016L212.418 21.0916L212.519 21.2927C212.536 21.3624 212.536 21.4352 212.519 21.505C212.489 21.598 212.444 21.685 212.384 21.762C212.297 21.8823 212.196 21.9912 212.082 22.086C211.727 22.3662 211.353 22.6201 210.961 22.8458C210.577 23.0706 210.176 23.2648 209.762 23.4268C209.335 23.5952 208.892 23.7224 208.44 23.8067C207.956 23.8982 207.465 23.9431 206.972 23.9408C206.256 23.9477 205.542 23.8498 204.854 23.6503C204.177 23.4599 203.526 23.1859 202.916 22.8346C201.714 22.1201 200.706 21.1226 199.98 19.9295C199.619 19.3234 199.337 18.6739 199.14 17.9965C198.946 17.3055 198.848 16.5912 198.849 15.8736C198.848 15.1523 198.946 14.4343 199.14 13.7394C199.337 13.0657 199.619 12.4198 199.98 11.8176C200.342 11.2205 200.775 10.669 201.269 10.1751C201.768 9.6927 202.32 9.26905 202.916 8.91252C203.523 8.55308 204.175 8.27507 204.854 8.08569C205.543 7.89154 206.256 7.79377 206.972 7.79518C207.431 7.79495 207.889 7.83987 208.339 7.92927C208.79 8.00752 209.233 8.12722 209.661 8.28681C210.074 8.42994 210.475 8.60555 210.86 8.81197C211.21 9.00928 211.543 9.23342 211.857 9.48237L212.059 9.64997C212.137 9.70539 212.205 9.77336 212.261 9.8511C212.315 9.927 212.35 10.0154 212.362 10.1081C212.399 10.2053 212.399 10.3126 212.362 10.4098L211.454 11.5941C211.252 11.8735 210.995 11.8735 210.715 11.5941C210.489 11.3539 210.232 11.1436 209.953 10.9684C209.659 10.7862 209.351 10.6256 209.034 10.488C208.703 10.3552 208.362 10.2506 208.014 10.1751C207.667 10.109 207.314 10.0753 206.961 10.0746C206.237 10.0713 205.522 10.2278 204.866 10.5327C204.197 10.8427 203.593 11.2747 203.084 11.8064C202.562 12.3457 202.141 12.9739 201.84 13.6612C201.525 14.3641 201.365 15.1261 201.37 15.8959C201.367 16.6644 201.523 17.4251 201.829 18.1306C202.129 18.8146 202.551 19.4391 203.073 19.9742C203.585 20.4984 204.194 20.9195 204.866 21.2145C205.525 21.5203 206.245 21.6767 206.972 21.6726C207.746 21.6954 208.514 21.5346 209.213 21.2033C209.503 21.0635 209.781 20.899 210.042 20.7117C210.28 20.5182 210.508 20.3131 210.726 20.0971Z" fill="white"/>
</svg>
