<svg width="1676" height="452" viewBox="0 0 1676 452" fill="none" xmlns="http://www.w3.org/2000/svg">
<path d="M0 452.983L1676 452.983V297.902L0 297.902V452.983Z" fill="url(#paint0_linear_63_84)"/>
<path d="M0 310.146L1676 310.146V297.902L0 297.902V310.146Z" fill="url(#paint1_linear_63_84)"/>
<path style="mix-blend-mode:multiply" opacity="0.4" d="M156.287 387.686C229.489 387.686 288.831 381.328 288.831 373.484C288.831 365.64 229.489 359.282 156.287 359.282C83.0852 359.282 23.7434 365.64 23.7434 373.484C23.7434 381.328 83.0852 387.686 156.287 387.686Z" fill="url(#paint2_linear_63_84)"/>
<path d="M66.1601 280.544H259.654C262.115 280.537 264.473 279.581 266.214 277.886C267.954 276.191 268.935 273.895 268.942 271.498V271.498C268.935 269.102 267.953 266.806 266.213 265.114C264.472 263.421 262.114 262.468 259.654 262.465H66.1601C63.7004 262.468 61.3423 263.421 59.6017 265.114C57.8611 266.806 56.8797 269.102 56.8723 271.498V271.498C56.8797 273.895 57.8606 276.191 59.6008 277.886C61.341 279.581 63.6991 280.537 66.1601 280.544V280.544Z" fill="url(#paint3_linear_63_84)"/>
<path d="M233.816 280.544L272.909 372.192H264.962L212.615 280.544H233.816Z" fill="url(#paint4_linear_63_84)"/>
<path d="M86.0348 280.544L46.9421 372.192H54.8892L107.236 280.544H86.0348Z" fill="url(#paint5_linear_63_84)"/>
<path d="M174.835 280.544L169.541 383.809H162.907L153.633 280.544H174.835Z" fill="url(#paint6_linear_63_84)"/>
<path d="M217.419 271.498C217.419 273.345 216.912 275.158 215.949 276.749C214.986 278.339 213.603 279.65 211.944 280.544H259.78C262.24 280.537 264.597 279.581 266.335 277.886C268.073 276.191 269.05 273.894 269.054 271.498C269.028 269.116 268.041 266.84 266.305 265.163C264.57 263.485 262.225 262.54 259.78 262.533H211.888C213.547 263.411 214.935 264.706 215.907 266.282C216.88 267.858 217.402 269.659 217.419 271.498V271.498Z" fill="url(#paint7_linear_63_84)"/>
<path d="M235.017 180.626V168.383C235.035 167.101 234.533 165.864 233.621 164.941C232.678 164.052 231.413 163.563 230.101 163.581H221.372V165.295V163.581H212.643C211.331 163.566 210.067 164.054 209.123 164.941C208.185 165.853 207.658 167.091 207.656 168.383V180.626C207.657 181.741 208.052 182.822 208.774 183.687H233.914C234.636 182.822 235.026 181.74 235.017 180.626Z" fill="url(#paint8_linear_63_84)"/>
<path d="M234.403 200.623C234.002 200.228 233.637 199.801 233.313 199.344H209.291C208.966 199.801 208.602 200.228 208.201 200.623L206.805 201.983C205.073 203.667 204.098 205.952 204.095 208.336V259.418C204.097 260.29 204.454 261.126 205.087 261.744V261.744C205.399 262.052 205.771 262.296 206.181 262.461C206.591 262.627 207.031 262.712 207.475 262.71H235.017C235.461 262.712 235.901 262.627 236.311 262.461C236.721 262.296 237.093 262.052 237.405 261.744V261.744C237.721 261.44 237.972 261.078 238.142 260.678C238.312 260.279 238.399 259.85 238.397 259.418V208.295C238.394 205.912 237.42 203.627 235.688 201.943L234.403 200.623Z" fill="url(#paint9_linear_63_84)"/>
<path d="M231.693 194.311V187.931C231.696 186.644 232.224 185.411 233.16 184.503L233.551 184.108C233.678 183.991 233.795 183.864 233.9 183.728H208.76C208.869 183.861 208.985 183.988 209.109 184.108L209.5 184.503C210.436 185.411 210.963 186.644 210.966 187.931V194.311C210.966 196.123 210.401 197.893 209.346 199.385H233.369C232.294 197.899 231.71 196.129 231.693 194.311V194.311Z" fill="#4D9E9D"/>
<path d="M217.88 158.193H224.626C225.03 158.193 225.417 158.35 225.702 158.628C225.988 158.906 226.148 159.283 226.148 159.676V163.512H216.372V159.676C216.372 159.285 216.53 158.91 216.813 158.632C217.095 158.355 217.479 158.197 217.88 158.193V158.193Z" fill="#4D9E9D"/>
<path d="M222.098 154.643H220.506V158.194H222.098V154.643Z" fill="#4D9E9D"/>
<path d="M224.64 154.643H217.964C217.648 154.643 217.344 154.521 217.119 154.305C216.895 154.088 216.766 153.794 216.763 153.487V153.487C216.766 153.179 216.895 152.884 217.119 152.668C217.344 152.452 217.648 152.33 217.964 152.33H224.64C224.797 152.328 224.953 152.357 225.098 152.414C225.244 152.472 225.377 152.556 225.488 152.664C225.6 152.772 225.689 152.9 225.749 153.041C225.81 153.182 225.841 153.334 225.841 153.487V153.487C225.841 153.64 225.81 153.791 225.749 153.932C225.689 154.073 225.6 154.201 225.488 154.309C225.377 154.416 225.244 154.501 225.098 154.559C224.953 154.616 224.797 154.645 224.64 154.643V154.643Z" fill="#4D9E9D"/>
<path d="M219.989 152.656C214.654 152.847 209.696 157.431 210.38 162.846C210.5 164.042 210.943 165.185 211.664 166.16C212.386 167.135 213.359 167.907 214.486 168.396C215.572 168.865 216.771 169.027 217.947 168.863C219.122 168.7 220.227 168.217 221.134 167.471C222.163 166.649 222.888 165.523 223.2 164.264C223.513 163.005 223.396 161.681 222.866 160.492C222.615 159.962 221.819 160.492 222.056 160.955C222.444 161.871 222.541 162.879 222.334 163.849C222.127 164.819 221.627 165.706 220.897 166.396C220.177 167.12 219.256 167.625 218.247 167.849C217.238 168.074 216.184 168.009 215.212 167.661C214.172 167.284 213.257 166.636 212.57 165.786C211.883 164.937 211.449 163.919 211.316 162.846C211.174 161.664 211.306 160.466 211.703 159.341C212.099 158.216 212.75 157.191 213.606 156.343C215.272 154.625 217.564 153.614 219.989 153.527C220.099 153.509 220.199 153.453 220.271 153.369C220.343 153.286 220.383 153.18 220.383 153.071C220.383 152.962 220.343 152.857 220.271 152.774C220.199 152.69 220.099 152.634 219.989 152.616V152.656Z" fill="#4D9E9D"/>
<path d="M146.371 196.243C146.371 196.243 156.357 162.07 150.812 136.536C145.267 111.003 149.038 101.058 150.812 75.3203C152.586 49.5822 155.701 52.6022 150.812 30.9725C145.924 9.34278 139.038 -12.0829 127.264 8.03685C115.49 28.1566 121.929 80.1359 127.264 99.7659C132.6 119.396 120.602 139.584 127.935 164.029C135.267 188.475 139.262 198.419 139.262 198.419L146.371 196.243Z" fill="url(#paint10_linear_63_84)"/>
<path d="M134.206 0.405273C134.206 0.405273 144.765 36.9309 138.717 71.5521C132.669 106.173 136.413 126.266 140.589 145.297C144.765 164.329 142.991 195.154 142.991 195.154" stroke="#397575" stroke-width="0.95" stroke-miterlimit="10"/>
<path d="M125.491 145.393C125.491 145.393 122.432 149.909 132.823 159.921C143.214 169.933 143.368 173.688 143.368 173.688" stroke="#397575" stroke-width="0.95" stroke-miterlimit="10"/>
<path d="M138.787 135.217C138.411 126.25 141.689 117.502 147.907 110.88" stroke="#397575" stroke-width="0.95" stroke-miterlimit="10"/>
<path d="M121.147 59.4038C121.147 59.4038 123.815 67.1307 129.82 71.2798C133.447 73.8462 136.041 77.5654 137.153 81.7954" stroke="#397575" stroke-width="0.95" stroke-miterlimit="10"/>
<path d="M139.667 65.6343C141.842 60.6233 144.964 56.0548 148.871 52.1667C154.29 47.1334 153.242 43.9365 153.242 43.9365" stroke="#397575" stroke-width="0.95" stroke-miterlimit="10"/>
<path d="M132.823 196.243C132.823 196.243 130.672 176.994 120.644 170.723C110.616 164.451 107.529 171.362 111.733 180.027C114.57 185.73 118.484 190.862 123.27 195.155C123.493 195.155 128.591 198.406 128.591 198.406L132.823 196.243Z" fill="url(#paint11_linear_63_84)"/>
<path d="M150.84 196.243C150.84 196.243 158.173 181.973 156.427 165.526C154.681 149.079 159.541 144.536 167.6 132.428C175.659 120.321 180.813 114.744 185.422 119.437C190.031 124.13 178.927 138.047 176.706 149.365C174.486 160.683 176.036 167.322 171.595 177.932C168.997 184.205 165.401 190.04 160.938 195.223L150.84 196.243Z" fill="url(#paint12_linear_63_84)"/>
<path d="M179.137 200.596C179.246 199.924 179.204 199.236 179.014 198.582C178.824 197.927 178.49 197.32 178.036 196.802C177.582 196.285 177.019 195.87 176.384 195.585C175.749 195.301 175.059 195.154 174.36 195.154H106.454L110.211 215.805H176.706L179.137 200.596Z" fill="url(#paint13_linear_63_84)"/>
<path d="M110.211 215.805L110.798 219.002H176.203L176.706 215.805H110.211Z" fill="#3C3587"/>
<path d="M176.203 219.001H110.798L114.806 241.067H172.67L176.203 219.001Z" fill="#7C50CC"/>
<path d="M114.806 241.066L117.432 255.5C117.79 257.49 118.858 259.293 120.447 260.592C122.036 261.891 124.045 262.603 126.119 262.601H161.664C163.772 262.603 165.81 261.87 167.411 260.535C169.012 259.2 170.07 257.351 170.393 255.323L172.67 241.066H114.806Z" fill="url(#paint14_linear_63_84)"/>
<defs>
<linearGradient id="paint0_linear_63_84" x1="2557.18" y1="-52.7305" x2="213.606" y2="562.525" gradientUnits="userSpaceOnUse">
<stop offset="0.05" stop-color="#EFA9CB" stop-opacity="0.5"/>
<stop offset="1" stop-color="#783393"/>
</linearGradient>
<linearGradient id="paint1_linear_63_84" x1="0" y1="304.024" x2="1676" y2="304.024" gradientUnits="userSpaceOnUse">
<stop stop-color="#FFA3A9"/>
<stop offset="1" stop-color="#FF7EA9"/>
</linearGradient>
<linearGradient id="paint2_linear_63_84" x1="23.7434" y1="373.484" x2="288.817" y2="373.484" gradientUnits="userSpaceOnUse">
<stop stop-color="#D4D4D4"/>
<stop offset="1" stop-color="#464280"/>
</linearGradient>
<linearGradient id="paint3_linear_63_84" x1="18.436" y1="271.498" x2="230.506" y2="271.498" gradientUnits="userSpaceOnUse">
<stop stop-color="#59B8B6"/>
<stop offset="0.07" stop-color="#47B5B1"/>
<stop offset="0.19" stop-color="#2DB1AA"/>
<stop offset="0.33" stop-color="#19ADA4"/>
<stop offset="0.49" stop-color="#0BABA0"/>
<stop offset="0.68" stop-color="#03A99E"/>
<stop offset="1" stop-color="#00A99D"/>
</linearGradient>
<linearGradient id="paint4_linear_63_84" x1="190.925" y1="198.474" x2="238.036" y2="320.979" gradientUnits="userSpaceOnUse">
<stop offset="0.01"/>
<stop offset="0.04" stop-color="#2C2C2C"/>
<stop offset="0.09" stop-color="#555555"/>
<stop offset="0.14" stop-color="#7B7B7B"/>
<stop offset="0.19" stop-color="#9B9B9B"/>
<stop offset="0.25" stop-color="#B7B7B7"/>
<stop offset="0.32" stop-color="#CDCDCD"/>
<stop offset="0.39" stop-color="#DEDEDE"/>
<stop offset="0.49" stop-color="#E9E9E9"/>
<stop offset="0.63" stop-color="#F0F0F0"/>
<stop offset="1" stop-color="#F2F2F2"/>
</linearGradient>
<linearGradient id="paint5_linear_63_84" x1="5398.65" y1="15736.9" x2="1058.97" y2="21219.9" gradientUnits="userSpaceOnUse">
<stop offset="0.01"/>
<stop offset="0.04" stop-color="#2C2C2C"/>
<stop offset="0.09" stop-color="#555555"/>
<stop offset="0.14" stop-color="#7B7B7B"/>
<stop offset="0.19" stop-color="#9B9B9B"/>
<stop offset="0.25" stop-color="#B7B7B7"/>
<stop offset="0.32" stop-color="#CDCDCD"/>
<stop offset="0.39" stop-color="#DEDEDE"/>
<stop offset="0.49" stop-color="#E9E9E9"/>
<stop offset="0.63" stop-color="#F0F0F0"/>
<stop offset="1" stop-color="#F2F2F2"/>
</linearGradient>
<linearGradient id="paint6_linear_63_84" x1="2722.82" y1="16570.6" x2="-775.672" y2="27886.1" gradientUnits="userSpaceOnUse">
<stop offset="0.01"/>
<stop offset="0.04" stop-color="#2C2C2C"/>
<stop offset="0.09" stop-color="#555555"/>
<stop offset="0.14" stop-color="#7B7B7B"/>
<stop offset="0.19" stop-color="#9B9B9B"/>
<stop offset="0.25" stop-color="#B7B7B7"/>
<stop offset="0.32" stop-color="#CDCDCD"/>
<stop offset="0.39" stop-color="#DEDEDE"/>
<stop offset="0.49" stop-color="#E9E9E9"/>
<stop offset="0.63" stop-color="#F0F0F0"/>
<stop offset="1" stop-color="#F2F2F2"/>
</linearGradient>
<linearGradient id="paint7_linear_63_84" x1="211.944" y1="271.498" x2="269.11" y2="271.498" gradientUnits="userSpaceOnUse">
<stop stop-color="#59B8B6"/>
<stop offset="0.31" stop-color="#56B8B5"/>
<stop offset="0.51" stop-color="#4EB6B3"/>
<stop offset="0.66" stop-color="#40B4AF"/>
<stop offset="0.81" stop-color="#2BB0A9"/>
<stop offset="0.93" stop-color="#11ACA2"/>
<stop offset="1" stop-color="#00A99D"/>
</linearGradient>
<linearGradient id="paint8_linear_63_84" x1="207.587" y1="173.606" x2="235.017" y2="173.606" gradientUnits="userSpaceOnUse">
<stop stop-color="#3C3587"/>
<stop offset="1" stop-color="#00006F"/>
</linearGradient>
<linearGradient id="paint9_linear_63_84" x1="-9575.45" y1="38651.5" x2="-8732.99" y2="38651.5" gradientUnits="userSpaceOnUse">
<stop stop-color="#3C3587"/>
<stop offset="1" stop-color="#00006F"/>
</linearGradient>
<linearGradient id="paint10_linear_63_84" x1="-10666.5" y1="115109" x2="-10666.5" y2="87334.2" gradientUnits="userSpaceOnUse">
<stop stop-color="#59B8B6"/>
<stop offset="0.31" stop-color="#56B8B5"/>
<stop offset="0.51" stop-color="#4EB6B3"/>
<stop offset="0.66" stop-color="#40B4AF"/>
<stop offset="0.81" stop-color="#2BB0A9"/>
<stop offset="0.93" stop-color="#11ACA2"/>
<stop offset="1" stop-color="#00A99D"/>
</linearGradient>
<linearGradient id="paint11_linear_63_84" x1="-7872.04" y1="17382.4" x2="-7495.99" y2="17382.4" gradientUnits="userSpaceOnUse">
<stop stop-color="#59B8B6"/>
<stop offset="0.31" stop-color="#56B8B5"/>
<stop offset="0.51" stop-color="#4EB6B3"/>
<stop offset="0.66" stop-color="#40B4AF"/>
<stop offset="0.81" stop-color="#2BB0A9"/>
<stop offset="0.93" stop-color="#11ACA2"/>
<stop offset="1" stop-color="#00A99D"/>
</linearGradient>
<linearGradient id="paint12_linear_63_84" x1="-11084.9" y1="45109.5" x2="-9074.32" y2="42471.4" gradientUnits="userSpaceOnUse">
<stop stop-color="#59B8B6"/>
<stop offset="0.31" stop-color="#56B8B5"/>
<stop offset="0.51" stop-color="#4EB6B3"/>
<stop offset="0.66" stop-color="#40B4AF"/>
<stop offset="0.81" stop-color="#2BB0A9"/>
<stop offset="0.93" stop-color="#11ACA2"/>
<stop offset="1" stop-color="#00A99D"/>
</linearGradient>
<linearGradient id="paint13_linear_63_84" x1="106.454" y1="205.479" x2="179.206" y2="205.479" gradientUnits="userSpaceOnUse">
<stop stop-color="#FFCDF7"/>
<stop offset="1" stop-color="#FFA3A9"/>
</linearGradient>
<linearGradient id="paint14_linear_63_84" x1="-18048.1" y1="13097" x2="-18223.8" y2="14073.8" gradientUnits="userSpaceOnUse">
<stop stop-color="#FFCDF7"/>
<stop offset="1" stop-color="#FFA3A9"/>
</linearGradient>
</defs>
</svg>
